<svg
  xmlns="http://www.w3.org/2000/svg"
  width="256"
  height="256"
  viewBox="0 0 256 256"
  fill="none"
>
  <rect width="256" height="256" rx="64" fill="#07131E" />
  <rect
    x="24"
    y="24"
    width="208"
    height="208"
    rx="56"
    stroke="#FB923C"
    stroke-opacity="0.18"
    stroke-width="4"
  />
  <path
    d="M213.333 138.667C213.333 192 176 218.667 131.627 234.133C129.173 234.987 126.56 234.773 124.48 234.027C79.9999 218.56 42.6666 192 42.6666 138.667V64C42.6666 58.1093 47.4426 53.3333 53.3333 53.3333C74.6666 53.3333 101.333 40.5333 119.893 24.32C124.533 20.2667 131.413 20.2667 136.107 24.32C154.773 40.64 181.333 53.3333 202.667 53.3333C208.557 53.3333 213.333 58.1093 213.333 64V138.667Z"
    fill="#FB923C"
    fill-opacity="0.12"
    stroke="#FB923C"
    stroke-width="12"
    stroke-linejoin="round"
  />
</svg>
